<svg xmlns="http://www.w3.org/2000/svg" xmlns:svg="http://www.w3.org/2000/svg" id="svg2" width="375" height="180" version="1.1" viewBox="0 0 375 180" xml:space="preserve"><defs id="defs6"><clipPath id="clipPath4139" clipPathUnits="userSpaceOnUse"><rect style="opacity:1;fill:#000;fill-opacity:.8;stroke:none" id="rect4141" width="375" height="180" x="0" y="0"/></clipPath></defs><metadata id="metadata8"/><path style="opacity:1;fill:#06f;fill-opacity:1;stroke:none" id="rect4134" d="M 164.39648 -27.845703 L 133.27734 0 L 160.22266 0 L 168.26172 -7.6445312 L 164.39648 -27.845703 z M 160.22266 0 L 156.57031 3.4726562 L 232.83789 87.988281 C 255.52789 78.183277 259.06375 61.97409 276.96875 81.996094 L 232.45703 121.82812 L 274.97852 180 L 375 180 L 375 0 L 160.22266 0 z M 274.97852 180 L 264.59766 180 L 296.0918 208.88477 L 274.97852 180 z M 264.59766 180 L 216.61719 135.99609 L 172.10352 175.82812 C 154.18752 155.80613 173.27913 151.11486 182.70312 130.88086 L 107.05078 47.785156 L 91.908203 58.710938 L 75.414062 51.777344 L 133.27734 0 L 0 0 L 0 180 L 264.59766 180 z" clip-path="url(#clipPath4139)"/><rect style="opacity:1;fill:#000;fill-opacity:.6;stroke:none" id="rect4143" width="375" height="180" x="0" y="0"/></svg>