<svg xmlns="http://www.w3.org/2000/svg" xmlns:svg="http://www.w3.org/2000/svg" id="svg2" width="24" height="24" version="1.1" viewBox="0 0 24 24" xml:space="preserve"><metadata id="metadata8"/><defs id="defs6"><clipPath id="clipPath16" clipPathUnits="userSpaceOnUse"><path id="path18" d="M 0,400 400,400 400,0 0,0 0,400 Z"/></clipPath></defs><g id="g10" transform="matrix(1.25,0,0,-1.25,0,24)"><g id="g12"><g id="g24" transform="matrix(0.03708236,-0.03338911,0.03351938,0.03722704,10.244498,7.0264361)" style="fill:#000;fill-opacity:1"><path id="path26" d="M 0,0 60.101,-82.22 -14.96,-13.38 -57,-51 c -16.919,18.91 1.11,23.341 10.011,42.45 l -71.45,78.48 -14.3,-10.32 -15.58,6.55 84.04,75.2 3.65,-19.08 -11.04,-10.5 L 0.36,31.96 c 21.43,9.26 24.77,24.57 41.68,5.66 L 0,0 Z" style="fill:#000;fill-opacity:1;fill-rule:evenodd;stroke:none"/></g></g></g></svg>