<svg xmlns="http://www.w3.org/2000/svg" xmlns:svg="http://www.w3.org/2000/svg" id="svg2" width="48" height="48" x="0" y="0" version="1.1"><metadata id="metadata43"/><defs id="defs4"><linearGradient id="color-1" x1="17.761" x2="57.013" y1="12.276" y2="62.498" gradientUnits="userSpaceOnUse"><stop id="stop7" offset=".3" stop-color="#000" stop-opacity=".05"/><stop id="stop9" offset="1" stop-color="#000" stop-opacity="0"/></linearGradient><filter id="dropshadow"><feColorMatrix id="feColorMatrix12" type="matrix" values="0 0 0 0 .05 0 0 0 0 .15 0 0 0 0 .1 0 0 0 .8 0"/><feOffset id="feOffset14" dx="0" dy="1"/><feGaussianBlur id="feGaussianBlur16" result="result1" stdDeviation="1"/><feComposite id="feComposite18" in="SourceGraphic" in2="result1"/></filter></defs><g id="g20" fill="none" stroke="none" stroke-dashoffset="0" stroke-linecap="butt" stroke-linejoin="miter" stroke-miterlimit="none" stroke-width="none" font-family="none" font-size="none" font-weight="normal" mix-blend-mode="normal" text-anchor="start"><path id="path35" fill="#fff" stroke-miterlimit="10" stroke-width="1" d="M4,24c0,-11.04569 8.95431,-20 20,-20c11.04569,0 20,8.95431 20,20c0,11.04569 -8.95431,20 -20,20c-11.04569,0 -20,-8.95431 -20,-20z" filter="url(#dropshadow)" font-family="sans-serif" font-size="12"/><path id="path37" fill="url(#color-1)" stroke-miterlimit="10" stroke-width="1" d="M23.95176,35.72407c0,0 -0.34576,-3.68226 -0.34576,-3.68226l-5.84548,-5.84548c0.01213,-2.38353 1.54698,-1.56261 3.3702,-2.34062l0.00001,0.00001l-0.0303,-8.49346l-1.65117,-1.65117l-0.67285,-1.43522c0,0 1.52605,1.52605 1.52605,1.52605l0.00001,0l-1.52606,-1.52606l10.58899,0.01229l0.00001,0.00001l0,-0.00001l14.44886,14.44886c-1.01074,7.38567 -6.05375,13.48704 -12.83728,16.01234l-7.02524,-7.02524z" font-family="sans-serif" font-size="12"/><path id="path39" fill="#06f" stroke="none" stroke-miterlimit="4" stroke-width="0" d="M24.94222,26.20499l-0.99047,9.51914l-0.89408,-9.52178l-5.29715,-0.00601c0.01213,-2.38353 1.54698,-1.56261 3.3702,-2.34062l-0.03557,-9.96942l-1.6459,-0.17523l-0.67285,-1.43522l10.58899,0.0123l-0.94712,1.56318l-1.43015,0.04183l-0.00847,10.09944c2.07582,0.69654 3.27247,-0.16459 3.25971,2.21837z" font-family="'Open Sans', sans-serif" font-size="14"/></g></svg>