<svg xmlns="http://www.w3.org/2000/svg" xmlns:svg="http://www.w3.org/2000/svg" id="svg2" width="24" height="24" version="1.1" viewBox="0 0 24 24" xml:space="preserve"><metadata id="metadata8"/><defs id="defs6"><clipPath id="clipPath16" clipPathUnits="userSpaceOnUse"><path id="path18" d="M 0,400 400,400 400,0 0,0 0,400 Z"/></clipPath></defs><g id="g10" transform="matrix(1.25,0,0,-1.25,0,24)"><g id="g12"><g id="g24" transform="matrix(0.03708236,-0.03338911,0.03351938,0.03722704,10.244498,7.0264361)" style="fill:#000;fill-opacity:1"><path id="path26" d="M -14.398076,15.855933 62.534117,-89.389651 -33.547601,-1.2711141 -87.360838,-49.426538 c -21.657142,24.205717 1.420854,29.877611 12.814565,54.3380574 l -91.459467,100.4582006 -18.30469,-13.210103 -19.94315,8.384323 107.57527,96.25965 4.672176,-24.42333 -14.131736,-13.44051 92.200611,-102.173468 c 27.431439,11.853249 31.706801,31.450795 53.35242,7.245074 L -14.398076,15.855933 Z" style="fill:#000;fill-opacity:1;fill-rule:evenodd;stroke:none"/></g></g></g></svg>