<svg xmlns="http://www.w3.org/2000/svg" xmlns:svg="http://www.w3.org/2000/svg" id="svg2" width="500" height="875" version="1.1" viewBox="0 0 500 875" xml:space="preserve"><metadata id="metadata8"/><defs id="defs6"><clipPath id="clipPath3352" clipPathUnits="userSpaceOnUse"><rect style="opacity:1;fill:#000;fill-opacity:.73333333;stroke:none;stroke-width:3.21666622;stroke-miterlimit:4;stroke-dasharray:none;stroke-opacity:1" id="rect3354" width="500" height="875" x="0" y="0"/></clipPath></defs><path style="opacity:1;fill:#06f;fill-opacity:1;fill-rule:evenodd;stroke:none" id="path26" d="m -0.1855532,0 0,148.83984 L 103.32641,57.527344 113.46055,109.75195 82.809563,138.49219 282.78781,356.9668 c 59.4971,-25.346 68.76806,-67.25024 115.71574,-15.49024 L 281.7862,444.44531 448.65007,669.48828 240.25544,481.06836 123.53809,584.03711 C 76.560972,532.27811 126.6181,520.1537 151.32945,467.8457 L -0.1855532,303.7793 -0.1855532,875 500,875 500,0 -0.1855532,0 Z m 0,303.7793 0,-154.93946 L -130,263.35742 l 43.255897,17.92969 39.702304,-28.24805 46.8562458,50.74024 z" clip-path="url(#clipPath3352)"/><rect style="opacity:1;fill:#000;fill-opacity:.80000001;stroke:none;stroke-width:3.21666622;stroke-miterlimit:4;stroke-dasharray:none;stroke-opacity:1" id="rect4139" width="500" height="875" x="0" y="0"/></svg>